<svg width="198" height="40" viewBox="0 0 198 40" fill="none" xmlns="http://www.w3.org/2000/svg">
<path d="M79.6792 32.9918C79.1321 32.5229 78.8181 32.031 78.7892 31.5152L79.6792 32.9918ZM79.6792 32.9918L79.6819 32.9941C80.2768 33.481 81.1149 33.7131 82.1741 33.7131H84.4921H84.647V33.5582V33.2543V33.0994H84.4921H83.328L82.9239 33.0258L82.9166 33.0245L82.9088 33.0235C82.6679 33.0038 82.3999 32.8406 82.1084 32.4778C81.8565 32.1082 81.7208 31.5749 81.7208 30.8601V18.9654C81.7208 17.697 81.3967 16.6468 80.7366 15.828L80.7347 15.8254C80.3026 15.3123 79.6249 14.933 78.723 14.6749C77.8407 14.3898 76.696 14.2502 75.2957 14.2502C73.8632 14.2502 72.5497 14.746 71.3595 15.7292C70.4079 16.4948 69.6921 17.3153 69.2185 18.1917V14.5572V14.4022H69.0632H66.4032H66.2482V14.5572V33.5582V33.7131H66.4032H69.0632H69.2185V33.5582V20.0675C69.2185 19.1184 69.8263 18.0166 71.1099 16.758L71.1112 16.7569C72.3783 15.4899 73.7965 14.8642 75.3715 14.8642C76.1397 14.8642 76.7728 14.9879 77.2776 15.2276C78.2356 15.7437 78.751 16.9438 78.751 18.9274V30.8601V30.8647V30.8693L78.7892 31.5152L79.6792 32.9918ZM63.8526 8.69754L63.9956 8.75243L64.0521 8.61042L64.2043 8.23041L64.2654 8.07778L64.1096 8.02579C61.5107 7.15961 58.9482 6.72577 56.422 6.72577C53.9179 6.72577 52.0114 7.31316 50.7301 8.51531C49.4539 9.68766 48.8186 11.2253 48.8186 13.1131C48.8186 15.495 49.8065 17.3426 51.7755 18.6383C52.6444 19.2259 53.6016 19.7618 54.6465 20.2461L54.6498 20.2474C55.6887 20.7037 56.7153 21.1472 57.7295 21.5782L57.7309 21.5787C58.7634 22.007 59.7072 22.4725 60.5614 22.9752C62.4458 24.0908 63.3736 25.6265 63.3736 27.5918C63.3736 29.3921 62.6624 30.7479 61.2395 31.6802C59.8254 32.5983 58.1078 33.0612 56.08 33.0612C54.7026 33.0612 53.3501 32.8608 52.0224 32.4604C50.7182 32.0337 49.6594 31.4968 48.8416 30.8522L48.7059 30.7451L48.614 30.8918L48.4241 31.1961L48.3464 31.3207L48.4664 31.4048C50.7007 32.9716 53.3933 33.7513 56.536 33.7513C58.2191 33.7513 59.6921 33.56 60.9517 33.1743L60.9536 33.1739C62.2514 32.7583 63.3533 31.9795 64.2576 30.8426C65.1683 29.6974 65.6216 28.3196 65.6216 26.7178C65.6216 25.1063 65.3532 23.7747 64.8061 22.7322C64.2636 21.6735 63.5506 20.842 62.6651 20.2431C61.7953 19.6547 60.8372 19.1309 59.7904 18.6715C58.7487 18.2141 57.7065 17.8074 56.6643 17.4514C55.6566 17.0735 54.7256 16.6708 53.8705 16.2434C51.9861 15.2511 51.0666 13.8672 51.0666 12.0871C51.0666 10.6119 51.6169 9.4685 52.7152 8.63851C53.819 7.80443 55.3651 7.3778 57.3723 7.3778C59.4015 7.3778 61.5618 7.81629 63.8526 8.69754ZM85.4589 16.9177L85.4584 16.9185C83.6995 18.7033 82.8297 21.2045 82.8297 24.3997C82.8297 27.5923 83.6728 29.9852 85.3885 31.5446C87.0941 33.0952 89.2995 33.8653 91.9912 33.8653C94.7132 33.8653 96.9585 32.9776 98.7133 31.1975C100.498 29.4128 101.381 26.9113 101.381 23.7157C101.381 20.5232 100.538 18.1303 98.8218 16.5706C97.1157 15.0199 94.8976 14.2502 92.181 14.2502C89.4833 14.2502 87.2385 15.1382 85.4589 16.9177ZM87.5929 17.386L87.5939 17.3852C88.8351 15.697 90.3867 14.8642 92.2569 14.8642C94.1367 14.8642 95.6368 15.5784 96.7719 17.0096C97.9056 18.439 98.4862 20.6646 98.4862 23.7157C98.4862 26.7359 97.8568 29.0804 96.6169 30.7677C95.3761 32.43 93.8241 33.2511 91.953 33.2511C90.0736 33.2511 88.5731 32.5371 87.438 31.1056C86.3043 29.6763 85.7237 27.463 85.7237 24.4377C85.7237 21.3912 86.3535 19.0471 87.5929 17.386ZM127.273 14.6756L127.159 14.7888L127.276 14.8983C127.641 15.2404 127.835 15.751 127.835 16.4573C127.835 17.1704 127.688 17.7762 127.399 18.2805L127.396 18.2863L127.393 18.2924L122.04 29.8859L116.355 14.5034L116.318 14.4022H116.21H113.55H113.328L113.404 14.6105L114.788 18.3887L109.499 29.885L103.814 14.5034L103.777 14.4022H103.669H101.009H100.786L100.863 14.6113L107.932 33.6124L107.969 33.7131H108.077H108.457H108.557L108.598 33.6226L115.131 19.2574L120.473 33.6124L120.51 33.7131H120.618H120.998H121.097L121.139 33.6226L128.055 18.4216L128.057 18.4184C128.368 17.6923 128.525 16.9749 128.525 16.2673C128.525 16.0779 128.499 15.8781 128.447 15.6685C128.415 15.4353 128.301 15.188 128.12 14.9288C128.043 14.8004 127.969 14.6933 127.9 14.61C127.832 14.528 127.758 14.4581 127.679 14.4185L127.58 14.3686L127.501 14.4476L127.273 14.6756Z" fill="url(#paint0_linear_706_2123)"/>
<path d="M79.6792 32.9918C79.1321 32.5229 78.8181 32.031 78.7892 31.5152M79.6792 32.9918L78.7892 31.5152M79.6792 32.9918L79.6819 32.9941C80.2768 33.481 81.1149 33.7131 82.1741 33.7131H84.4921H84.647V33.5582V33.2543V33.0994H84.4921H83.328L82.9239 33.0258L82.9166 33.0245L82.9088 33.0235C82.6679 33.0038 82.3999 32.8406 82.1084 32.4778C81.8565 32.1082 81.7208 31.5749 81.7208 30.8601V18.9654C81.7208 17.697 81.3967 16.6468 80.7366 15.828L80.7347 15.8254C80.3026 15.3123 79.6249 14.933 78.723 14.6749C77.8407 14.3898 76.696 14.2502 75.2957 14.2502C73.8632 14.2502 72.5497 14.746 71.3595 15.7292C70.4079 16.4948 69.6921 17.3153 69.2185 18.1917V14.5572V14.4022H69.0632H66.4032H66.2482V14.5572V33.5582V33.7131H66.4032H69.0632H69.2185V33.5582V20.0675C69.2185 19.1184 69.8263 18.0166 71.1099 16.758L71.1112 16.7569C72.3783 15.4899 73.7965 14.8642 75.3715 14.8642C76.1397 14.8642 76.7728 14.9879 77.2776 15.2276C78.2356 15.7437 78.751 16.9438 78.751 18.9274V30.8601V30.8647V30.8693L78.7892 31.5152M63.8526 8.69754L63.9956 8.75243L64.0521 8.61042L64.2043 8.23041L64.2654 8.07778L64.1096 8.02579C61.5107 7.15961 58.9482 6.72577 56.422 6.72577C53.9179 6.72577 52.0114 7.31316 50.7301 8.51531C49.4539 9.68766 48.8186 11.2253 48.8186 13.1131C48.8186 15.495 49.8065 17.3426 51.7755 18.6383C52.6444 19.2259 53.6016 19.7618 54.6465 20.2461L54.6498 20.2474C55.6887 20.7037 56.7153 21.1472 57.7295 21.5782L57.7309 21.5787C58.7634 22.007 59.7072 22.4725 60.5614 22.9752C62.4458 24.0908 63.3736 25.6265 63.3736 27.5918C63.3736 29.3921 62.6624 30.7479 61.2395 31.6802C59.8254 32.5983 58.1078 33.0612 56.08 33.0612C54.7026 33.0612 53.3501 32.8608 52.0224 32.4604C50.7182 32.0337 49.6594 31.4968 48.8416 30.8522L48.7059 30.7451L48.614 30.8918L48.4241 31.1961L48.3464 31.3207L48.4664 31.4048C50.7007 32.9716 53.3933 33.7513 56.536 33.7513C58.2191 33.7513 59.6921 33.56 60.9517 33.1743L60.9536 33.1739C62.2514 32.7583 63.3533 31.9795 64.2576 30.8426C65.1683 29.6974 65.6216 28.3196 65.6216 26.7178C65.6216 25.1063 65.3532 23.7747 64.8061 22.7322C64.2636 21.6735 63.5506 20.842 62.6651 20.2431C61.7953 19.6547 60.8372 19.1309 59.7904 18.6715C58.7487 18.2141 57.7065 17.8074 56.6643 17.4514C55.6566 17.0735 54.7256 16.6708 53.8705 16.2434C51.9861 15.2511 51.0666 13.8672 51.0666 12.0871C51.0666 10.6119 51.6169 9.4685 52.7152 8.63851C53.819 7.80443 55.3651 7.3778 57.3723 7.3778C59.4015 7.3778 61.5618 7.81629 63.8526 8.69754ZM85.4589 16.9177L85.4584 16.9185C83.6995 18.7033 82.8297 21.2045 82.8297 24.3997C82.8297 27.5923 83.6728 29.9852 85.3885 31.5446C87.0941 33.0952 89.2995 33.8653 91.9912 33.8653C94.7132 33.8653 96.9585 32.9776 98.7133 31.1975C100.498 29.4128 101.381 26.9113 101.381 23.7157C101.381 20.5232 100.538 18.1303 98.8218 16.5706C97.1157 15.0199 94.8976 14.2502 92.181 14.2502C89.4833 14.2502 87.2385 15.1382 85.4589 16.9177ZM87.5929 17.386L87.5939 17.3852C88.8351 15.697 90.3867 14.8642 92.2569 14.8642C94.1367 14.8642 95.6368 15.5784 96.7719 17.0096C97.9056 18.439 98.4862 20.6646 98.4862 23.7157C98.4862 26.7359 97.8568 29.0804 96.6169 30.7677C95.3761 32.43 93.8241 33.2511 91.953 33.2511C90.0736 33.2511 88.5731 32.5371 87.438 31.1056C86.3043 29.6763 85.7237 27.463 85.7237 24.4377C85.7237 21.3912 86.3535 19.0471 87.5929 17.386ZM127.273 14.6756L127.159 14.7888L127.276 14.8983C127.641 15.2404 127.835 15.751 127.835 16.4573C127.835 17.1704 127.688 17.7762 127.399 18.2805L127.396 18.2863L127.393 18.2924L122.04 29.8859L116.355 14.5034L116.318 14.4022H116.21H113.55H113.328L113.404 14.6105L114.788 18.3887L109.499 29.885L103.814 14.5034L103.777 14.4022H103.669H101.009H100.786L100.863 14.6113L107.932 33.6124L107.969 33.7131H108.077H108.457H108.557L108.598 33.6226L115.131 19.2574L120.473 33.6124L120.51 33.7131H120.618H120.998H121.097L121.139 33.6226L128.055 18.4216L128.057 18.4184C128.368 17.6923 128.525 16.9749 128.525 16.2673C128.525 16.0779 128.499 15.8781 128.447 15.6685C128.415 15.4353 128.301 15.188 128.12 14.9288C128.043 14.8004 127.969 14.6933 127.9 14.61C127.832 14.528 127.758 14.4581 127.679 14.4185L127.58 14.3686L127.501 14.4476L127.273 14.6756Z" stroke="url(#paint1_linear_706_2123)" stroke-width="0.674298"/>
<path d="M134.411 7.23152C135.124 6.13834 136.281 5.29142 137.887 5.21658L137.551 31.124V31.1263C137.551 31.3603 137.624 31.6127 137.758 31.8793C138.381 33.1275 139.87 33.7132 142.114 33.7132H143.292H143.448V33.5583V33.2544V33.0994H143.292H142.128L141.724 33.0259L141.717 33.0245L141.709 33.0236C141.468 33.0038 141.201 32.8406 140.909 32.4779C140.657 32.1083 140.522 31.575 140.522 30.8601V5.09475V4.94226L140.369 4.93978L138.046 4.90176L137.891 4.89923L137.89 4.90383C135.29 4.95068 133.367 5.56216 132.159 6.77065C130.924 7.9795 130.326 9.99449 130.326 12.7712V14.4023H129.683H129.529V14.5572V15.1713V15.3262H129.683H130.326V33.5583V33.7132H130.482H133.142H133.296V33.5583V15.3262H136.144H136.298V15.1713V14.5572V14.4023H136.144H133.296V12.7712C133.296 10.1689 133.677 8.33317 134.41 7.23281L134.411 7.23152ZM154.647 24.2689C154.129 24.2274 153.559 24.2067 152.94 24.2067C152.251 24.2067 151.499 24.245 150.686 24.3212C149.047 24.423 147.691 24.6139 146.621 24.8959C145.552 25.1774 144.754 25.5534 144.245 26.0353C143.755 26.4991 143.44 26.9412 143.328 27.362C143.223 27.7528 143.17 28.1211 143.17 28.4658C143.17 28.778 143.196 29.0902 143.248 29.4023C143.468 30.8739 144.043 31.9961 144.986 32.7482C145.928 33.4994 147.217 33.8654 148.836 33.8654C150.225 33.8654 151.434 33.5789 152.456 32.9997C153.328 32.505 154.059 31.8003 154.647 30.89V31.1263C154.647 31.5994 154.981 32.1198 155.567 32.6802C156.247 33.3854 157.481 33.7132 159.21 33.7132H160.388H160.543V33.5583V33.2544V33.0994H160.388H159.224L158.82 33.0259L158.813 33.0245L158.805 33.0236C158.564 33.0038 158.296 32.8406 158.005 32.4779C157.753 32.1083 157.617 31.575 157.617 30.8601V18.1294C157.617 17.2728 157.268 16.4647 156.59 15.7081C156.145 15.2095 155.474 14.8462 154.596 14.6072C153.717 14.368 152.619 14.2502 151.306 14.2502C148.951 14.2502 146.636 14.7751 144.363 15.8225L144.209 15.8933L144.293 16.0402L144.445 16.3062L144.522 16.4402L144.656 16.3642C145.221 16.0449 146.117 15.7196 147.355 15.3911L147.357 15.3905C148.615 15.0383 149.703 14.8642 150.622 14.8642C151.547 14.8642 152.284 14.9896 152.84 15.2314L152.845 15.2336C153.414 15.4562 153.787 15.7201 153.991 16.0135C154.211 16.3324 154.382 16.6624 154.504 17.0035L154.506 17.01L154.509 17.0163C154.654 17.3298 154.691 17.5711 154.651 17.7519C154.625 17.8563 154.609 17.9493 154.609 18.0249C154.609 18.0628 154.613 18.1058 154.628 18.1468C154.633 18.1599 154.639 18.1738 154.647 18.1874V24.2689ZM146.216 29.3651L146.216 29.3628C146.191 29.1131 146.178 28.8906 146.178 28.6939C146.178 27.6062 146.463 26.7739 147.011 26.1768C147.279 25.8866 147.711 25.6315 148.325 25.4204C148.939 25.2099 149.722 25.047 150.677 24.9338C151.355 24.8585 152.034 24.8208 152.712 24.8208C153.368 24.8208 154.013 24.8425 154.647 24.8861V29.3329C154.574 30.1328 154.028 30.9957 152.953 31.9207C151.916 32.8098 150.748 33.2512 149.444 33.2512C148.468 33.2512 147.726 32.9303 147.197 32.2995C146.662 31.6623 146.329 30.6918 146.216 29.3651ZM163.775 5.05673V4.90176H163.619H160.959H160.804V5.05673V33.5583V33.7132H160.959H163.619H163.775V33.5583V24.4578L164.63 23.475L171.548 33.6456L171.594 33.7132H171.676H174.336H174.629L174.464 33.4709L166.361 21.5621L172.476 14.66L172.704 14.4023H172.36H171.98H171.91L171.864 14.4544L163.775 23.5735V5.05673ZM189.242 32.2053L189.183 32.0678L189.043 32.1216C187.088 32.8737 184.853 33.2512 182.335 33.2512C180.586 33.2512 179.175 32.5404 178.089 31.1093C177.029 29.6795 176.486 27.4149 176.486 24.2858C176.486 23.6057 176.518 22.948 176.584 22.3126H190.011H190.166V22.1576V22.1569V22.1562V22.1554V22.1547V22.1539V22.1532V22.1524V22.1517V22.151V22.1502V22.1495V22.1487V22.148V22.1473V22.1465V22.1458V22.145V22.1443V22.1435V22.1428V22.1421V22.1413V22.1406V22.1398V22.1391V22.1383V22.1376V22.1369V22.1361V22.1354V22.1346V22.1339V22.1331V22.1324V22.1317V22.1309V22.1302V22.1294V22.1287V22.1279V22.1272V22.1265V22.1257V22.125V22.1242V22.1235V22.1228V22.122V22.1213V22.1205V22.1198V22.119V22.1183V22.1176V22.1168V22.1161V22.1154V22.1146V22.1138V22.1131V22.1124V22.1116V22.1109V22.1102V22.1094V22.1086V22.1079V22.1072V22.1064V22.1057V22.105V22.1042V22.1034V22.1027V22.102V22.1012V22.1005V22.0998V22.099V22.0982V22.0975V22.0968V22.096V22.0953V22.0946V22.0938V22.0931V22.0923V22.0916V22.0908V22.0901V22.0894V22.0886V22.0879V22.0871V22.0864V22.0857V22.0849V22.0842V22.0834V22.0827V22.0819V22.0812V22.0805V22.0797V22.079V22.0782V22.0775V22.0767V22.076V22.0753V22.0745V22.0738V22.073V22.0723V22.0715V22.0708V22.0701V22.0693V22.0686V22.0678V22.0671V22.0663V22.0656V22.0649V22.0641V22.0634V22.0626V22.0619V22.0611V22.0604V22.0597V22.0589V22.0582V22.0574V22.0567V22.056V22.0552V22.0545V22.0537V22.053V22.0522V22.0515V22.0508V22.05V22.0493V22.0486V22.0478V22.047V22.0463V22.0456V22.0448V22.0441V22.0434V22.0426V22.0418V22.0411V22.0404V22.0396V22.0389V22.0382V22.0374V22.0366V22.0359V22.0352V22.0344V22.0337V22.033V22.0322V22.0314V22.0307V22.03V22.0292V22.0285V22.0278V22.027V22.0263V22.0255V22.0248V22.024V22.0233V22.0226V22.0218V22.0211V22.0203V22.0196V22.0189V22.0181V22.0174V22.0166V22.0159V22.0151V22.0144V22.0137V22.0129V22.0122V22.0114V22.0107V22.0099V22.0092V22.0085V22.0077V22.007V22.0062V22.0055V22.0047V22.004V22.0033V22.0025V22.0018V22.001V22.0003V21.9995V21.9988V21.9981V21.9973V21.9966V21.9958V21.9951V21.9944V21.9936V21.9929V21.9921V21.9914V21.9906V21.9899V21.9892V21.9884V21.9877V21.9869V21.9862V21.9854V21.9847V21.984V21.9832V21.9825V21.9818V21.981V21.9802V21.9795V21.9788V21.978V21.9773V21.9766V21.9758V21.975V21.9743V21.9736V21.9728V21.9721V21.9714V21.9706V21.9698V21.9691V21.9684V21.9676V21.9669V21.9662V21.9654V21.9647V21.9639V21.9632V21.9624V21.9617V21.961V21.9602V21.9595V21.9587V21.958V21.9572V21.9565V21.9558V21.955V21.9543V21.9535V21.9528V21.9521V21.9513V21.9506V21.9498V21.9491V21.9483V21.9476V21.9469V21.9461V21.9454V21.9446V21.9439V21.9431V21.9424V21.9417V21.9409V21.9401V21.9394V21.9387V21.9379V21.9372V21.9365V21.9357V21.935V21.9342V21.9335V21.9327V21.932V21.9313V21.9305V21.9298V21.929V21.9283V21.9276V21.9268V21.9261V21.9253V21.9246V21.9238V21.9231V21.9224V21.9216V21.9209V21.9202V21.9194V21.9186V21.9179V21.9172V21.9164V21.9157V21.915V21.9142V21.9134V21.9127V21.912V21.9112V21.9105V21.9098V21.909V21.9082V21.9075V21.9068V21.906V21.9053V21.9046V21.9038V21.903V21.9023V21.9016V21.9008V21.9001V21.8994V21.8986V21.8979V21.8971V21.8964V21.8956V21.8949V21.8942V21.8934V21.8927V21.8919V21.8912V21.8905V21.8897V21.8889V21.8882V21.8875V21.8867V21.886V21.8853V21.8845V21.8838V21.883V21.8823V21.8815V21.8808V21.8801V21.8793V21.8785V21.8778V21.8771V21.8763V21.8756V21.8749V21.8741V21.8734V21.8726V21.8719V21.8711V21.8704V21.8697V21.8689V21.8682V21.8674V21.8667V21.8659V21.8652V21.8645V21.8637V21.863V21.8622V21.8615V21.8608V21.86V21.8593V21.8585V21.8578V21.857V21.8563V21.8556V21.8548V21.8541V21.8534V21.8526V21.8518V21.8511V21.8504V21.8496V21.8489V21.8482V21.8474V21.8466V21.8459V21.8452V21.8444V21.8437V21.843V21.8422V21.8414V21.8407V21.84V21.8392V21.8385V21.8378V21.837V21.8362V21.8355V21.8348V21.834V21.8333V21.8325V21.8318V21.8311V21.8303V21.8296V21.8288V21.8281V21.8273V21.8266V21.8259V21.8251V21.8244V21.8237V21.8229V21.8221V21.8214V21.8207V21.8199V21.8192V21.8185V21.8177V21.8169V21.8162V21.8155V21.8147V21.814V21.8133V21.8125V21.8117V21.811V21.8103V21.8095V21.8088V21.8081V21.8073V21.8066V21.8058V21.8051V21.8043V21.8036V21.8029V21.8021V21.8014V21.8006V21.7999V21.7992V21.7984V21.7977V21.7969V21.7962V21.7954V21.7947V21.794V21.7932V21.7925V21.7917V21.791V21.7902V21.7895V21.7888V21.788V21.7873V21.7866V21.7858V21.785V21.7843V21.7836V21.7828V21.7821V21.7813V21.7806V21.7798V21.7791V21.7784V21.7776C190.166 19.3146 189.447 17.4295 187.985 16.1507C186.535 14.882 184.75 14.2502 182.639 14.2502C180.015 14.2502 177.846 15.1393 176.143 16.9202C174.435 18.7052 173.591 21.2058 173.591 24.3998C173.591 27.5901 174.395 29.982 176.034 31.5423C177.663 33.0939 179.768 33.8654 182.335 33.8654C184.91 33.8654 187.222 33.47 189.269 32.6765L189.419 32.6186L189.356 32.471L189.242 32.2053ZM185.899 16.5529C186.761 17.6546 187.226 19.361 187.27 21.6986H176.661C176.975 19.5745 177.667 17.9166 178.726 16.7124C179.842 15.4723 181.095 14.8642 182.487 14.8642C183.882 14.8642 185.015 15.4239 185.899 16.5529Z" fill="url(#paint2_linear_706_2123)" stroke="url(#paint3_linear_706_2123)" stroke-width="0.674298"/>
<path d="M193.519 4.65781V5.66176H192.377V8.71624H191.293V5.66176H190.152V4.65781H193.519Z" fill="url(#paint4_linear_706_2123)"/>
<path d="M197.967 4.59708V8.73463H196.883V6.72672L196.089 7.66981H195.765L194.971 6.72672V8.73463H193.888V4.59708H194.27L195.927 6.3616L197.584 4.59708H197.967Z" fill="url(#paint5_linear_706_2123)"/>
<path fill-rule="evenodd" clip-rule="evenodd" d="M18.8944 26.9478L18.8778 39.9963L21.6362 40L21.6528 26.8905L26.6846 38.9955L29.2316 37.9367L24.2344 25.9149L33.4285 35.1324L35.3814 33.1845L26.1479 23.9274L38.2244 28.9389L39.2813 26.3915L27.2037 21.379H40.2803V18.6207H27.235L39.2928 13.6409L38.2395 11.0914L26.2335 16.0499L35.4655 6.91219L33.5255 4.95173L24.1786 14.2028L29.2155 2.05475L26.6673 0.9983L21.6703 13.0505L21.6869 0.00349342L18.9285 0L18.9119 13.1105L13.8796 1.00423L11.3325 2.06298L16.3293 14.0838L7.13586 4.867L5.18293 6.81501L14.4167 16.0723L2.34016 11.0603L1.28283 13.608L13.3612 18.6207H0.283936V21.379H13.3301L1.27203 26.359L2.32494 28.9086L14.3305 23.9503L5.09862 33.0875L7.03904 35.0483L16.3853 25.7975L11.3488 37.945L13.8968 39.0015L18.8944 26.9478Z" fill="url(#paint6_linear_706_2123)"/>
<defs>
<linearGradient id="paint0_linear_706_2123" x1="88.4359" y1="6.72577" x2="88.4359" y2="33.8653" gradientUnits="userSpaceOnUse">
<stop stop-color="#6C7085"/>
<stop offset="1" stop-color="#252731"/>
</linearGradient>
<linearGradient id="paint1_linear_706_2123" x1="88.4359" y1="6.72577" x2="88.4359" y2="33.8653" gradientUnits="userSpaceOnUse">
<stop stop-color="#6C7085"/>
<stop offset="1" stop-color="#252731"/>
</linearGradient>
<linearGradient id="paint2_linear_706_2123" x1="159.847" y1="4.89923" x2="159.847" y2="33.8654" gradientUnits="userSpaceOnUse">
<stop stop-color="#6C7085"/>
<stop offset="1" stop-color="#252731"/>
</linearGradient>
<linearGradient id="paint3_linear_706_2123" x1="159.847" y1="4.89923" x2="159.847" y2="33.8654" gradientUnits="userSpaceOnUse">
<stop stop-color="#6C7085"/>
<stop offset="1" stop-color="#252731"/>
</linearGradient>
<linearGradient id="paint4_linear_706_2123" x1="191.835" y1="4.65781" x2="191.835" y2="8.71624" gradientUnits="userSpaceOnUse">
<stop stop-color="#6C7085"/>
<stop offset="1" stop-color="#252731"/>
</linearGradient>
<linearGradient id="paint5_linear_706_2123" x1="195.927" y1="4.59708" x2="195.927" y2="8.73463" gradientUnits="userSpaceOnUse">
<stop stop-color="#6C7085"/>
<stop offset="1" stop-color="#252731"/>
</linearGradient>
<linearGradient id="paint6_linear_706_2123" x1="20.2821" y1="0" x2="20.2821" y2="40" gradientUnits="userSpaceOnUse">
<stop stop-color="#6C7085"/>
<stop offset="1" stop-color="#252731"/>
</linearGradient>
</defs>
</svg>
