<svg width="174" height="40" viewBox="0 0 174 40" fill="none" xmlns="http://www.w3.org/2000/svg">
<path d="M51.8651 10.6597C53.517 10.6597 54.9467 10.935 56.1543 11.4855C57.3797 12.0361 58.3209 12.8175 58.9778 13.8298C59.6352 14.842 59.9638 16.0408 59.9638 17.4261C59.9638 18.7935 59.6352 19.9923 58.9778 21.0224C58.3209 22.0347 57.3797 22.8161 56.1543 23.3664C54.9467 23.8994 53.517 24.1659 51.8651 24.1659H48.1089V29.3074H43.7935V10.6597H51.8651ZM51.6257 20.6494C52.9218 20.6494 53.9078 20.3741 54.5825 19.8236C55.2576 19.2553 55.5947 18.4561 55.5947 17.4261C55.5947 16.3783 55.2576 15.5791 54.5825 15.0285C53.9078 14.4602 52.9218 14.1761 51.6257 14.1761H48.1089V20.6494H51.6257Z" fill="url(#paint0_linear_706_2102)"/>
<path d="M65.389 16.8668C65.886 16.1741 66.5522 15.6503 67.3868 15.2951C68.2391 14.9398 69.2158 14.7623 70.3168 14.7623V18.5983C69.8554 18.5628 69.5444 18.5451 69.3846 18.5451C68.1947 18.5451 67.2624 18.8825 66.5877 19.5573C65.9126 20.2145 65.5751 21.209 65.5751 22.5409V29.3076H61.4196V14.9754H65.389V16.8668Z" fill="url(#paint1_linear_706_2102)"/>
<path d="M78.1459 29.5202C76.6366 29.5202 75.278 29.2097 74.0703 28.5879C72.8804 27.9488 71.9482 27.0693 71.273 25.9505C70.5984 24.8317 70.2608 23.5619 70.2608 22.1412C70.2608 20.7204 70.5984 19.4506 71.273 18.3318C71.9482 17.213 72.8804 16.3427 74.0703 15.7211C75.278 15.0818 76.6366 14.7621 78.1459 14.7621C79.6555 14.7621 81.0053 15.0818 82.1952 15.7211C83.3851 16.3427 84.3174 17.213 84.9925 18.3318C85.6672 19.4506 86.0047 20.7204 86.0047 22.1412C86.0047 23.5619 85.6672 24.8317 84.9925 25.9505C84.3174 27.0693 83.3851 27.9488 82.1952 28.5879C81.0053 29.2097 79.6555 29.5202 78.1459 29.5202ZM78.1459 26.1104C79.2118 26.1104 80.0819 25.7551 80.7566 25.0449C81.4495 24.3169 81.7955 23.3487 81.7955 22.1412C81.7955 20.9336 81.4495 19.9746 80.7566 19.2642C80.0819 18.536 79.2118 18.172 78.1459 18.172C77.0803 18.172 76.2014 18.536 75.5089 19.2642C74.8161 19.9746 74.4696 20.9336 74.4696 22.1412C74.4696 23.3487 74.8161 24.3169 75.5089 25.0449C76.2014 25.7551 77.0803 26.1104 78.1459 26.1104Z" fill="url(#paint2_linear_706_2102)"/>
<path d="M104.846 10.6597V29.3074H101.303L92.0055 17.9855V29.3074H87.7435V10.6597H91.3131L100.583 21.9814V10.6597H104.846Z" fill="url(#paint3_linear_706_2102)"/>
<path d="M113.413 14.7621C115.633 14.7621 117.338 15.2949 118.528 16.3605C119.718 17.4083 120.313 18.9978 120.313 21.1289V29.3074H116.423V27.5224C115.642 28.8544 114.186 29.5202 112.055 29.5202C110.954 29.5202 109.994 29.3336 109.177 28.961C108.378 28.5879 107.765 28.0731 107.339 27.4158C106.913 26.7589 106.7 26.0127 106.7 25.1781C106.7 23.8461 107.197 22.7984 108.192 22.0347C109.204 21.271 110.758 20.8892 112.854 20.8892H116.157C116.157 19.9834 115.882 19.2908 115.331 18.8113C114.78 18.314 113.955 18.0654 112.854 18.0654C112.09 18.0654 111.335 18.1897 110.589 18.4383C109.861 18.6692 109.24 18.9889 108.724 19.3973L107.233 16.4937C108.014 15.9431 108.946 15.5169 110.03 15.215C111.131 14.9131 112.259 14.7621 113.413 14.7621ZM113.093 26.7233C113.804 26.7233 114.434 26.5634 114.985 26.2436C115.535 25.9061 115.926 25.418 116.157 24.7784V23.3131H113.307C111.602 23.3131 110.749 23.8728 110.749 24.9916C110.749 25.5246 110.954 25.9505 111.362 26.2703C111.788 26.5723 112.365 26.7233 113.093 26.7233Z" fill="url(#paint4_linear_706_2102)"/>
<path d="M131.986 28.6145C131.578 28.9165 131.071 29.1474 130.468 29.3073C129.881 29.449 129.26 29.5201 128.603 29.5201C126.898 29.5201 125.575 29.0853 124.634 28.2147C123.71 27.3446 123.248 26.0659 123.248 24.379V18.4915H121.037V15.2948H123.248V11.8051H127.404V15.2948H130.974V18.4915H127.404V24.3257C127.404 24.9293 127.555 25.4001 127.857 25.7372C128.177 26.057 128.62 26.2169 129.189 26.2169C129.846 26.2169 130.405 26.0393 130.867 25.6844L131.986 28.6145Z" fill="url(#paint5_linear_706_2102)"/>
<path d="M147.425 14.9752V29.3074H143.483V27.6023C142.932 28.2237 142.275 28.7033 141.512 29.0409C140.748 29.3602 139.922 29.5201 139.034 29.5201C137.151 29.5201 135.66 28.9787 134.558 27.8954C133.457 26.8121 132.907 25.2047 132.907 23.0737V14.9752H137.062V22.4608C137.062 24.7695 138.031 25.9238 139.966 25.9238C140.961 25.9238 141.76 25.6045 142.364 24.9649C142.967 24.308 143.269 23.3397 143.269 22.0613V14.9752H147.425Z" fill="url(#paint6_linear_706_2102)"/>
<path d="M153.913 16.8668C154.41 16.1741 155.076 15.6503 155.911 15.2951C156.763 14.9398 157.74 14.7623 158.841 14.7623V18.5983C158.379 18.5628 158.068 18.5451 157.909 18.5451C156.719 18.5451 155.786 18.8825 155.112 19.5573C154.437 20.2145 154.099 21.209 154.099 22.5409V29.3076H149.944V14.9754H153.913V16.8668Z" fill="url(#paint7_linear_706_2102)"/>
<path d="M173.889 22.1946C173.889 22.2478 173.862 22.6208 173.809 23.3133H162.967C163.162 24.2016 163.624 24.9029 164.352 25.4181C165.08 25.9329 165.986 26.1905 167.069 26.1905C167.815 26.1905 168.472 26.0839 169.04 25.8707C169.626 25.6402 170.168 25.2849 170.665 24.8052L172.877 27.2027C171.527 28.7479 169.555 29.5203 166.962 29.5203C165.346 29.5203 163.917 29.2099 162.674 28.588C161.43 27.9489 160.471 27.0695 159.796 25.9507C159.122 24.8318 158.784 23.562 158.784 22.1414C158.784 20.7383 159.113 19.4774 159.77 18.3586C160.445 17.222 161.359 16.3429 162.514 15.7213C163.686 15.0819 164.991 14.7623 166.43 14.7623C167.833 14.7623 169.103 15.0642 170.239 15.668C171.376 16.2718 172.264 17.142 172.903 18.2787C173.56 19.3975 173.889 20.7029 173.889 22.1946ZM166.456 17.9057C165.515 17.9057 164.725 18.1721 164.086 18.7049C163.446 19.2377 163.056 19.9658 162.913 20.8893H169.973C169.831 19.9836 169.44 19.2643 168.801 18.7315C168.161 18.181 167.38 17.9057 166.456 17.9057Z" fill="url(#paint8_linear_706_2102)"/>
<path fill-rule="evenodd" clip-rule="evenodd" d="M20.1268 0.27472C19.4936 -0.0915733 18.7129 -0.0915733 18.0798 0.27472C13.5823 2.87635 10.549 7.74404 10.549 13.3226C10.549 14.1177 10.6106 14.8984 10.7293 15.6601C7.63328 14.6087 4.28103 14.9913 1.54296 16.5691C0.909155 16.9342 0.518788 17.6103 0.51941 18.3418C0.522652 22.2009 2.52738 25.9621 6.11774 28.035C7.87912 29.0521 9.80164 29.5353 11.698 29.5362C11.4095 30.3534 11.2525 31.2333 11.2525 32.1496C11.2525 36.4854 14.7673 40 19.103 40C23.4389 40 26.9535 36.4854 26.9535 32.1496C26.9535 31.2311 26.7958 30.3499 26.5062 29.5309C28.2895 29.4745 30.0856 28.9903 31.7396 28.035C35.3302 25.9621 37.3346 22.2011 37.3377 18.342C37.3386 17.6105 36.9482 16.9344 36.3144 16.5692C33.6841 15.0536 30.4871 14.6408 27.4953 15.5427C27.6024 14.8182 27.6574 14.0769 27.6574 13.3226C27.6574 7.74404 24.6243 2.87635 20.1268 0.27472ZM14.6371 13.3226C14.6371 9.70005 16.3912 6.48522 19.1033 4.48414C21.8154 6.48522 23.5694 9.70005 23.5694 13.3226C23.5694 16.9452 21.8154 20.16 19.1033 22.1611C16.3912 20.16 14.6371 16.9452 14.6371 13.3226ZM27.1649 20.1114C29.0525 19.0215 31.2338 18.8947 33.1392 19.5844C32.7838 21.5793 31.5833 23.4047 29.6956 24.4946C27.808 25.5846 25.6268 25.7111 23.7213 25.0218C24.0767 23.0267 25.2772 21.2013 27.1649 20.1114ZM4.7183 19.5842C6.62363 18.8946 8.80478 19.0214 10.6925 20.1112C12.5802 21.2011 13.7806 23.0267 14.136 25.0214C12.2307 25.7111 10.0495 25.5846 8.16182 24.4946C6.27413 23.4047 5.07371 21.5791 4.7183 19.5842ZM15.3407 32.1496C15.3407 30.0718 17.0251 28.3872 19.103 28.3872C21.1809 28.3872 22.8655 30.0718 22.8655 32.1496C22.8655 34.2273 21.1809 35.912 19.103 35.912C17.0251 35.912 15.3407 34.2273 15.3407 32.1496Z" fill="url(#paint9_linear_706_2102)"/>
<defs>
<linearGradient id="paint0_linear_706_2102" x1="51.8787" y1="10.6597" x2="51.8787" y2="29.3074" gradientUnits="userSpaceOnUse">
<stop stop-color="#6C7085"/>
<stop offset="1" stop-color="#252731"/>
</linearGradient>
<linearGradient id="paint1_linear_706_2102" x1="65.8682" y1="14.7623" x2="65.8682" y2="29.3076" gradientUnits="userSpaceOnUse">
<stop stop-color="#6C7085"/>
<stop offset="1" stop-color="#252731"/>
</linearGradient>
<linearGradient id="paint2_linear_706_2102" x1="78.1328" y1="14.7621" x2="78.1328" y2="29.5202" gradientUnits="userSpaceOnUse">
<stop stop-color="#6C7085"/>
<stop offset="1" stop-color="#252731"/>
</linearGradient>
<linearGradient id="paint3_linear_706_2102" x1="96.2947" y1="10.6597" x2="96.2947" y2="29.3074" gradientUnits="userSpaceOnUse">
<stop stop-color="#6C7085"/>
<stop offset="1" stop-color="#252731"/>
</linearGradient>
<linearGradient id="paint4_linear_706_2102" x1="113.506" y1="14.7621" x2="113.506" y2="29.5202" gradientUnits="userSpaceOnUse">
<stop stop-color="#6C7085"/>
<stop offset="1" stop-color="#252731"/>
</linearGradient>
<linearGradient id="paint5_linear_706_2102" x1="126.512" y1="11.8051" x2="126.512" y2="29.5201" gradientUnits="userSpaceOnUse">
<stop stop-color="#6C7085"/>
<stop offset="1" stop-color="#252731"/>
</linearGradient>
<linearGradient id="paint6_linear_706_2102" x1="140.166" y1="14.9752" x2="140.166" y2="29.5201" gradientUnits="userSpaceOnUse">
<stop stop-color="#6C7085"/>
<stop offset="1" stop-color="#252731"/>
</linearGradient>
<linearGradient id="paint7_linear_706_2102" x1="154.392" y1="14.7623" x2="154.392" y2="29.3076" gradientUnits="userSpaceOnUse">
<stop stop-color="#6C7085"/>
<stop offset="1" stop-color="#252731"/>
</linearGradient>
<linearGradient id="paint8_linear_706_2102" x1="166.336" y1="14.7623" x2="166.336" y2="29.5203" gradientUnits="userSpaceOnUse">
<stop stop-color="#6C7085"/>
<stop offset="1" stop-color="#252731"/>
</linearGradient>
<linearGradient id="paint9_linear_706_2102" x1="18.9286" y1="0" x2="18.9286" y2="40" gradientUnits="userSpaceOnUse">
<stop stop-color="#6C7085"/>
<stop offset="1" stop-color="#252731"/>
</linearGradient>
</defs>
</svg>
