<svg width="147" height="40" viewBox="0 0 147 40" fill="none" xmlns="http://www.w3.org/2000/svg">
<path d="M55.0303 7.23965H60.25L54.5619 31.7199H45.3819L39.6938 7.23965H44.9139L49.1622 27.3998H50.782L55.0303 7.23965Z" fill="url(#paint0_linear_706_2080)"/>
<path d="M65.2271 24.7719C65.251 25.8759 65.5389 26.6799 66.0909 27.1839C66.6668 27.6639 67.4829 27.9039 68.539 27.9039C70.7709 27.9039 72.7631 27.8319 74.515 27.6879L75.523 27.5799L75.5951 31.1441C72.8351 31.816 70.3388 32.1521 68.1069 32.1521C65.3951 32.1521 63.4269 31.4321 62.203 29.992C60.9788 28.5519 60.367 26.2119 60.367 22.9719C60.367 16.5158 63.0191 13.2878 68.3228 13.2878C73.5548 13.2878 76.171 15.9998 76.171 21.4238L75.811 24.7719H65.2271ZM71.4189 21.0999C71.4189 19.6598 71.1911 18.6638 70.7351 18.1118C70.2791 17.5358 69.475 17.2478 68.3228 17.2478C67.1949 17.2478 66.3908 17.5478 65.9109 18.1478C65.4549 18.7238 65.2151 19.7078 65.1908 21.0999H71.4189Z" fill="url(#paint1_linear_706_2080)"/>
<path d="M78.8984 31.72V13.7198H83.6864V15.6278C85.7024 14.4278 87.6225 13.6478 89.4465 13.2878V18.1478C87.5022 18.5558 85.8343 18.9758 84.4423 19.4078L83.7223 19.6598V31.72H78.8984Z" fill="url(#paint2_linear_706_2080)"/>
<path d="M101.545 17.8238H97.117V25.2038C97.117 25.9238 97.1289 26.4398 97.1532 26.7518C97.201 27.0399 97.3332 27.2919 97.5491 27.5079C97.7892 27.7239 98.1489 27.8319 98.6292 27.8319L101.365 27.7599L101.581 31.612C99.973 31.9721 98.7491 32.1521 97.9091 32.1521C95.7489 32.1521 94.273 31.6718 93.4812 30.712C92.689 29.7279 92.2932 27.9278 92.2932 25.3118V17.8238H90.1688V13.7197H92.2932V8.71567H97.117V13.7197H101.545V17.8238Z" fill="url(#paint3_linear_706_2080)"/>
<path d="M103.966 31.7198V13.7196H108.791V31.7198H103.966ZM103.966 11.4156V6.51953H108.791V11.4156H103.966Z" fill="url(#paint4_linear_706_2080)"/>
<path d="M128.836 33.9519C128.836 36.0161 128.043 37.5399 126.46 38.524C124.876 39.5081 122.727 40 120.016 40C117.328 40 115.252 39.64 113.787 38.9199C112.347 38.1998 111.627 36.8919 111.627 34.9961C111.627 33.4839 112.492 32.0558 114.22 30.712C113.331 30.1118 112.887 29.1998 112.887 27.9759C112.887 27.4959 113.247 26.7039 113.968 25.5999L114.291 25.0959C112.66 23.9198 111.844 22.1918 111.844 19.9118C111.844 17.6078 112.527 15.9398 113.895 14.9078C115.287 13.8758 117.123 13.3598 119.403 13.3598C120.435 13.3598 121.456 13.4798 122.464 13.7198L123.04 13.8278L128.836 13.6478V17.4998L126.136 17.2838C126.663 18.0998 126.928 18.9158 126.928 19.7318C126.928 22.1318 126.316 23.7879 125.092 24.6999C123.868 25.6119 121.948 26.0679 119.331 26.0679C118.779 26.0679 118.288 26.0199 117.855 25.9239C117.616 26.5479 117.495 27.0639 117.495 27.4719C117.495 27.8559 117.7 28.1199 118.107 28.2639C118.515 28.4079 119.476 28.4919 120.987 28.5159C124.011 28.5399 126.076 28.9479 127.18 29.7398C128.284 30.5081 128.836 31.912 128.836 33.9519ZM116.379 34.492C116.379 35.5239 117.64 36.04 120.159 36.04C122.704 36.04 123.976 35.4398 123.976 34.2399C123.976 33.5919 123.76 33.1721 123.328 32.9801C122.895 32.8121 121.983 32.7161 120.591 32.6918L117.352 32.4401C116.704 33.0881 116.379 33.7719 116.379 34.492ZM116.667 19.7678C116.667 21.5199 117.579 22.3958 119.403 22.3958C121.251 22.3958 122.175 21.5199 122.175 19.7678C122.175 17.9918 121.251 17.1038 119.403 17.1038C117.579 17.1038 116.667 17.9918 116.667 19.7678Z" fill="url(#paint5_linear_706_2080)"/>
<path d="M132.01 15.7718C133.282 14.1158 135.406 13.2878 138.382 13.2878C141.358 13.2878 143.483 14.1158 144.754 15.7718C146.026 17.4038 146.662 19.7078 146.662 22.6839C146.662 28.9959 143.902 32.1521 138.382 32.1521C132.862 32.1521 130.102 28.9959 130.102 22.6839C130.102 19.7078 130.739 17.4038 132.01 15.7718ZM135.718 26.7519C136.222 27.6159 137.11 28.0479 138.382 28.0479C139.655 28.0479 140.53 27.6159 141.011 26.7519C141.514 25.8879 141.767 24.5319 141.767 22.6839C141.767 20.8358 141.514 19.4919 141.011 18.6518C140.53 17.8118 139.655 17.3918 138.382 17.3918C137.11 17.3918 136.222 17.8118 135.718 18.6518C135.239 19.4919 134.998 20.8358 134.998 22.6839C134.998 24.5319 135.239 25.8879 135.718 26.7519Z" fill="url(#paint6_linear_706_2080)"/>
<path fill-rule="evenodd" clip-rule="evenodd" d="M21.3964 5.86664C19.2406 4.97366 16.9083 4.5886 14.5799 4.7412C12.2515 4.89383 9.98939 5.58003 7.96859 6.74672L5.92967 7.92388L3.57535 3.84609L5.61426 2.66893C8.26056 1.14112 11.2228 0.242488 14.2719 0.0426605C17.3211 -0.157203 20.3753 0.347056 23.1984 1.51639C26.0214 2.68577 28.5377 4.48885 30.5524 6.78624C32.567 9.08359 34.0263 11.8137 34.8174 14.7652C35.6081 17.7167 35.7095 20.8107 35.1133 23.8076C34.5171 26.8046 33.2396 29.6243 31.3794 32.0485C29.5191 34.4727 27.1263 36.4366 24.3858 37.788C21.6452 39.1393 18.1104 39.8424 15.5749 39.8424C13.0393 39.8424 11.5588 39.4621 9.61455 38.6569C7.72493 37.8742 6.00801 36.7271 4.56174 35.2808C3.11549 33.8345 1.96829 32.1173 1.18556 30.2277C0.402879 28.3382 0 26.3129 0 24.2676C0 22.2223 0.402879 20.197 1.18556 18.3074C1.96829 16.4178 3.11549 14.7009 4.56174 13.2546C6.00801 11.8084 7.72493 10.6611 9.61455 9.87844C11.5042 9.09572 13.5295 8.69288 15.5747 8.69288C17.6201 8.69288 19.6453 9.09572 21.535 9.87844C23.4246 10.6611 25.1415 11.8084 26.5878 13.2546C28.034 14.7009 29.1811 16.4178 29.9639 18.3074C30.3007 19.1202 30.5669 19.9581 30.7614 20.812C30.8563 19.1911 30.6915 17.5609 30.2692 15.9839C29.665 13.73 28.5508 11.6452 27.0123 9.89086C25.4737 8.1365 23.5522 6.75958 21.3964 5.86664ZM6.17101 29.7119C6.43806 24.6499 10.6272 20.6276 15.7559 20.6276C20.6862 20.6276 24.7484 24.345 25.2923 29.1298C25.4076 28.8994 25.5148 28.6646 25.6137 28.4259C26.1598 27.1076 26.4409 25.6946 26.4409 24.2676C26.4409 22.8407 26.1598 21.4277 25.6137 20.1093C25.0677 18.791 24.2673 17.5932 23.2582 16.5841C22.2493 15.5751 21.0514 14.7747 19.733 14.2286C18.4147 13.6826 17.0017 13.4015 15.5747 13.4015C14.1478 13.4015 12.7348 13.6826 11.4165 14.2286C10.0982 14.7747 8.90028 15.5751 7.89125 16.5841C6.88226 17.5932 6.08187 18.791 5.53577 20.1093C4.98972 21.4277 4.70865 22.8407 4.70865 24.2676C4.70865 25.6946 4.98972 27.1076 5.53577 28.4259C5.71937 28.8691 5.93166 29.2986 6.17101 29.7119ZM20.6456 30.2259C20.6456 32.9265 18.4564 35.1156 15.7559 35.1156C13.0553 35.1156 10.8661 32.9265 10.8661 30.2259C10.8661 27.5254 13.0553 25.3362 15.7559 25.3362C18.4564 25.3362 20.6456 27.5254 20.6456 30.2259Z" fill="url(#paint7_linear_706_2080)"/>
<defs>
<linearGradient id="paint0_linear_706_2080" x1="49.9719" y1="7.23965" x2="49.9719" y2="31.7199" gradientUnits="userSpaceOnUse">
<stop stop-color="#6C7085"/>
<stop offset="1" stop-color="#252731"/>
</linearGradient>
<linearGradient id="paint1_linear_706_2080" x1="68.269" y1="13.2878" x2="68.269" y2="32.1521" gradientUnits="userSpaceOnUse">
<stop stop-color="#6C7085"/>
<stop offset="1" stop-color="#252731"/>
</linearGradient>
<linearGradient id="paint2_linear_706_2080" x1="84.1725" y1="13.2878" x2="84.1725" y2="31.72" gradientUnits="userSpaceOnUse">
<stop stop-color="#6C7085"/>
<stop offset="1" stop-color="#252731"/>
</linearGradient>
<linearGradient id="paint3_linear_706_2080" x1="95.875" y1="8.71567" x2="95.875" y2="32.1521" gradientUnits="userSpaceOnUse">
<stop stop-color="#6C7085"/>
<stop offset="1" stop-color="#252731"/>
</linearGradient>
<linearGradient id="paint4_linear_706_2080" x1="106.379" y1="6.51953" x2="106.379" y2="31.7198" gradientUnits="userSpaceOnUse">
<stop stop-color="#6C7085"/>
<stop offset="1" stop-color="#252731"/>
</linearGradient>
<linearGradient id="paint5_linear_706_2080" x1="120.231" y1="13.3598" x2="120.231" y2="40" gradientUnits="userSpaceOnUse">
<stop stop-color="#6C7085"/>
<stop offset="1" stop-color="#252731"/>
</linearGradient>
<linearGradient id="paint6_linear_706_2080" x1="138.382" y1="13.2878" x2="138.382" y2="32.1521" gradientUnits="userSpaceOnUse">
<stop stop-color="#6C7085"/>
<stop offset="1" stop-color="#252731"/>
</linearGradient>
<linearGradient id="paint7_linear_706_2080" x1="17.748" y1="0" x2="17.748" y2="39.8424" gradientUnits="userSpaceOnUse">
<stop stop-color="#6C7085"/>
<stop offset="1" stop-color="#252731"/>
</linearGradient>
</defs>
</svg>
