<svg width="195" height="40" viewBox="0 0 195 40" fill="none" xmlns="http://www.w3.org/2000/svg">
<path d="M158.207 1.83905V37.7011H163.456V1.83905H158.207Z" fill="url(#paint0_linear_706_2113)"/>
<path fill-rule="evenodd" clip-rule="evenodd" d="M110.748 38.28C108.676 38.28 106.946 37.7977 105.557 36.8326C105.405 36.7273 105.257 36.6175 105.113 36.5034V37.7011H100.482V2.41797H105.769V17.5332C107.066 16.6993 108.635 16.2822 110.477 16.2822C112.471 16.2822 114.208 16.7582 115.687 17.7102C117.167 18.6621 118.312 19.9679 119.122 21.6273C119.945 23.274 120.357 25.1586 120.357 27.2809C120.357 29.365 119.952 31.2368 119.141 32.8965C118.344 34.5559 117.224 35.868 115.784 36.8326C114.343 37.7977 112.664 38.28 110.748 38.28ZM105.576 23.9623C105.267 24.914 105.113 26.0202 105.113 27.2809C105.113 28.5416 105.267 29.6483 105.576 30.6C105.885 31.5522 106.387 32.2915 107.081 32.8193C107.788 33.3467 108.728 33.6101 109.898 33.6101C111.03 33.6101 111.957 33.3273 112.677 32.7614C113.398 32.1954 113.931 31.4363 114.279 30.4841C114.626 29.5195 114.8 28.4519 114.8 27.2809C114.8 26.1232 114.62 25.0685 114.259 24.1168C113.899 23.1517 113.34 22.3863 112.581 21.8203C111.834 21.2414 110.876 20.9519 109.705 20.9519C108.612 20.9519 107.724 21.2157 107.043 21.7431C106.374 22.2705 105.885 23.0101 105.576 23.9623Z" fill="url(#paint1_linear_706_2113)"/>
<path d="M92.1836 25.3898V37.7011H97.4319V24.0008C97.4319 21.7237 96.8209 19.8842 95.5988 18.4819C94.3896 17.0669 92.5951 16.3594 90.2154 16.3594C88.8259 16.3594 87.5588 16.6681 86.414 17.2856C85.3657 17.8454 84.5105 18.6148 83.8485 19.5938C83.3547 18.7054 82.6724 17.9745 81.802 17.4014C80.7602 16.7067 79.4223 16.3594 77.7887 16.3594C76.3606 16.3594 75.0678 16.6745 73.9101 17.3049C73.0351 17.7866 72.2954 18.3997 71.6908 19.1443V16.8611H67.06V37.7011H72.3469V25.0813C72.3469 23.885 72.6751 22.9137 73.3312 22.1676C74.0002 21.4086 74.8811 21.0291 75.9744 21.0291C77.1197 21.0291 78.0135 21.415 78.6567 22.1869C79.3128 22.9459 79.6411 24.0137 79.6411 25.3898V37.7011H84.8894V25.0813C84.8894 24.2836 85.0374 23.5825 85.3335 22.978C85.642 22.3605 86.0664 21.8845 86.6071 21.5501C87.1473 21.2027 87.7841 21.0291 88.5174 21.0291C89.6623 21.0291 90.556 21.415 91.1993 22.1869C91.8554 22.9459 92.1836 24.0137 92.1836 25.3898Z" fill="url(#paint2_linear_706_2113)"/>
<path d="M48.2561 37.4885C49.2851 38.0416 50.6166 38.3184 52.2506 38.3184C54.2957 38.3184 55.9876 37.8747 57.3255 36.9869C57.9605 36.5699 58.52 36.0913 59.0042 35.552V37.7009H63.6354V16.8609H58.3481V27.4352C58.3481 28.7216 58.2 29.7635 57.9044 30.5612C57.6212 31.346 57.2547 31.9442 56.8042 32.3556C56.354 32.7547 55.8717 33.0246 55.3573 33.1662C54.8428 33.3078 54.36 33.3786 53.9099 33.3786C52.7908 33.3786 51.9223 33.1276 51.3048 32.626C50.7003 32.1244 50.263 31.5005 49.9927 30.7543C49.7228 30.0081 49.5619 29.2683 49.5104 28.535C49.4589 27.7892 49.4331 27.1782 49.4331 26.7019V16.8609H44.1076V28.5543C44.1076 28.9019 44.1329 29.455 44.1844 30.214C44.2359 30.9731 44.3839 31.8154 44.6285 32.7419C44.8727 33.655 45.2782 34.5363 45.8442 35.3855C46.423 36.2343 47.2272 36.9354 48.2561 37.4885Z" fill="url(#paint3_linear_706_2113)"/>
<path d="M122.673 16.8613V37.7013H127.96V27.0498C127.96 26.2521 128.07 25.5381 128.288 24.9077C128.507 24.2645 128.829 23.7114 129.253 23.2484C129.678 22.7724 130.199 22.3929 130.816 22.1099C131.434 21.814 132.122 21.6403 132.881 21.5889C133.653 21.5245 134.328 21.5824 134.907 21.7625V16.8613C134.276 16.7841 133.646 16.7712 133.016 16.8227C132.385 16.8613 131.774 16.9706 131.183 17.1507C130.591 17.318 130.044 17.5559 129.543 17.8647C128.887 18.2506 128.333 18.7394 127.883 19.3312C127.67 19.6114 127.477 19.9059 127.304 20.2148V16.8613H122.673Z" fill="url(#paint4_linear_706_2113)"/>
<path fill-rule="evenodd" clip-rule="evenodd" d="M145.958 38.2802C143.822 38.2802 141.937 37.8236 140.304 36.91C138.683 35.9841 137.409 34.7169 136.483 33.1087C135.57 31.488 135.113 29.6356 135.113 27.5514C135.113 25.2746 135.563 23.2935 136.464 21.6082C137.364 19.923 138.605 18.6173 140.188 17.6911C141.77 16.752 143.591 16.2824 145.649 16.2824C147.836 16.2824 149.695 16.797 151.225 17.8261C152.756 18.8552 153.888 20.3025 154.622 22.1678C155.355 24.0333 155.612 26.2264 155.394 28.7477H140.76C140.924 29.9988 141.313 31.0149 141.925 31.7965C142.774 32.8516 144.015 33.379 145.649 33.379C146.678 33.379 147.559 33.1537 148.292 32.7036C149.026 32.2535 149.585 31.6038 149.971 30.7546L155.22 32.2599C154.435 34.1638 153.194 35.6429 151.496 36.6976C149.811 37.7528 147.965 38.2802 145.958 38.2802ZM149.18 22.245C149.628 22.8544 149.93 23.7229 150.083 24.8498H140.898C141.103 23.8875 141.445 23.0962 141.925 22.4765C142.774 21.3831 144.092 20.8363 145.88 20.8363C147.411 20.8363 148.511 21.3059 149.18 22.245Z" fill="url(#paint5_linear_706_2113)"/>
<path d="M167.697 37.7011V1.83905H172.945V37.7011H167.697Z" fill="url(#paint6_linear_706_2113)"/>
<path fill-rule="evenodd" clip-rule="evenodd" d="M178.789 37.431C179.831 37.9969 181.098 38.2802 182.59 38.2802C184.391 38.2802 185.877 37.9712 187.048 37.3537C187.981 36.8567 188.862 36.1202 189.691 35.1431V37.7013H194.284V24.9657C194.284 24.014 194.245 23.1519 194.168 22.3801C194.091 21.6082 193.846 20.8363 193.435 20.0645C192.701 18.6751 191.621 17.6975 190.193 17.1315C188.765 16.5654 187.131 16.2824 185.292 16.2824C182.783 16.2824 180.802 16.8227 179.348 17.9033C177.895 18.9839 176.904 20.3861 176.377 22.1099L181.124 23.6149C181.458 22.6631 182.044 22.0006 182.88 21.6275C183.716 21.2544 184.52 21.0679 185.292 21.0679C186.681 21.0679 187.672 21.3574 188.263 21.9362C188.728 22.3908 189.01 23.0475 189.11 23.9068C188.221 24.0415 187.38 24.1694 186.585 24.2903C185.234 24.4834 184.025 24.6894 182.957 24.9077C181.889 25.1266 180.97 25.3776 180.198 25.6604C179.078 26.0719 178.184 26.5868 177.515 27.2043C176.859 27.8089 176.383 28.5096 176.087 29.3073C175.792 30.105 175.644 30.9864 175.644 31.951C175.644 33.1087 175.907 34.1698 176.435 35.1349C176.975 36.0866 177.76 36.8521 178.789 37.431ZM186.141 33.6489C185.485 33.9836 184.674 34.151 183.709 34.151C183.105 34.151 182.584 34.0608 182.147 33.8806C181.709 33.7004 181.368 33.4434 181.124 33.1087C180.892 32.7615 180.776 32.3496 180.776 31.8737C180.776 31.5266 180.847 31.2112 180.989 30.9284C181.143 30.6452 181.375 30.3882 181.684 30.1565C182.005 29.9119 182.423 29.6871 182.938 29.4811C183.388 29.3137 183.909 29.1592 184.501 29.0181C185.092 28.8765 185.871 28.722 186.835 28.5546C187.456 28.4392 188.198 28.3073 189.062 28.1597C189.05 28.5266 189.028 28.9413 188.997 29.4038C188.958 30.15 188.804 30.8061 188.534 31.3721C188.392 31.6677 188.122 32.0346 187.723 32.4719C187.337 32.9091 186.81 33.3018 186.141 33.6489Z" fill="url(#paint7_linear_706_2113)"/>
<path fill-rule="evenodd" clip-rule="evenodd" d="M15.1417 17.0115H0.888855V23.2184C0.888855 32.4864 8.40223 40 17.6705 40C26.9387 40 34.4523 32.4864 34.4523 23.2184V17.0115H19.7394V7.12644C19.7394 3.19062 16.5488 0 12.613 0C8.67718 0 5.48656 3.19062 5.48656 7.12644H10.0843C10.0843 5.72984 11.2164 4.5977 12.613 4.5977C14.0096 4.5977 15.1417 5.72984 15.1417 7.12644V17.0115ZM15.1417 21.6092V30.3448H19.7394V21.6092H29.8546V23.2184C29.8546 29.9476 24.3994 35.4023 17.6705 35.4023C10.9415 35.4023 5.48656 29.9476 5.48656 23.2184V21.6092H15.1417Z" fill="url(#paint8_linear_706_2113)"/>
<defs>
<linearGradient id="paint0_linear_706_2113" x1="160.831" y1="1.83905" x2="160.831" y2="37.7011" gradientUnits="userSpaceOnUse">
<stop stop-color="#6C7085"/>
<stop offset="1" stop-color="#252731"/>
</linearGradient>
<linearGradient id="paint1_linear_706_2113" x1="110.419" y1="2.41797" x2="110.419" y2="38.28" gradientUnits="userSpaceOnUse">
<stop stop-color="#6C7085"/>
<stop offset="1" stop-color="#252731"/>
</linearGradient>
<linearGradient id="paint2_linear_706_2113" x1="82.2459" y1="16.3594" x2="82.2459" y2="37.7011" gradientUnits="userSpaceOnUse">
<stop stop-color="#6C7085"/>
<stop offset="1" stop-color="#252731"/>
</linearGradient>
<linearGradient id="paint3_linear_706_2113" x1="53.8715" y1="16.8609" x2="53.8715" y2="38.3184" gradientUnits="userSpaceOnUse">
<stop stop-color="#6C7085"/>
<stop offset="1" stop-color="#252731"/>
</linearGradient>
<linearGradient id="paint4_linear_706_2113" x1="128.79" y1="16.7918" x2="128.79" y2="37.7013" gradientUnits="userSpaceOnUse">
<stop stop-color="#6C7085"/>
<stop offset="1" stop-color="#252731"/>
</linearGradient>
<linearGradient id="paint5_linear_706_2113" x1="145.291" y1="16.2824" x2="145.291" y2="38.2802" gradientUnits="userSpaceOnUse">
<stop stop-color="#6C7085"/>
<stop offset="1" stop-color="#252731"/>
</linearGradient>
<linearGradient id="paint6_linear_706_2113" x1="170.321" y1="1.83905" x2="170.321" y2="37.7011" gradientUnits="userSpaceOnUse">
<stop stop-color="#6C7085"/>
<stop offset="1" stop-color="#252731"/>
</linearGradient>
<linearGradient id="paint7_linear_706_2113" x1="184.964" y1="16.2824" x2="184.964" y2="38.2802" gradientUnits="userSpaceOnUse">
<stop stop-color="#6C7085"/>
<stop offset="1" stop-color="#252731"/>
</linearGradient>
<linearGradient id="paint8_linear_706_2113" x1="17.6706" y1="0" x2="17.6706" y2="40" gradientUnits="userSpaceOnUse">
<stop stop-color="#6C7085"/>
<stop offset="1" stop-color="#252731"/>
</linearGradient>
</defs>
</svg>
