<svg width="191" height="40" viewBox="0 0 191 40" fill="none" xmlns="http://www.w3.org/2000/svg">
<path d="M0.662445 26.6931L14.1877 20.6734L21.9727 25.1882L23.5454 40L13.9519 39.9206L15.3673 29.6237L13.7159 28.6733L5.61645 35.0101L0.662445 26.6931Z" fill="url(#paint0_linear_706_2089)"/>
<path d="M22.8381 24.5541L34.7909 33.346L39.5089 24.8709L29.9151 20.9897V19.0888L39.5089 15.1284L34.7909 6.73236L22.8381 15.5244V24.5541Z" fill="url(#paint1_linear_706_2089)"/>
<path d="M21.9727 14.8118L23.5454 0L13.9519 0.158369L15.3673 10.4554L13.7159 11.4059L5.53782 5.06925L0.662445 13.3068L14.1877 19.3266L21.9727 14.8118Z" fill="url(#paint2_linear_706_2089)"/>
<path d="M71.5146 18.225V32.1014H76.6777V14.4172H69.1585V18.225H71.5146Z" fill="url(#paint3_linear_706_2089)"/>
<path d="M71.3532 11.9323C71.8266 12.427 72.5473 12.6744 73.5153 12.6744C74.4838 12.6744 75.1933 12.427 75.6448 11.9323C76.1187 11.4158 76.3548 10.7703 76.3548 9.99604C76.3548 9.19988 76.1187 8.55446 75.6448 8.05974C75.1933 7.54348 74.4838 7.28522 73.5153 7.28522C72.5473 7.28522 71.8266 7.54348 71.3532 8.05974C70.9017 8.55446 70.6757 9.19988 70.6757 9.99604C70.6757 10.7703 70.9017 11.4158 71.3532 11.9323Z" fill="url(#paint4_linear_706_2089)"/>
<path d="M53.5403 31.7142C55.003 32.3811 56.7994 32.7147 58.9289 32.7147C60.93 32.7147 62.6507 32.4024 64.0926 31.7787C65.5339 31.155 66.6416 30.2835 67.4161 29.1646C68.2125 28.0244 68.6102 26.7014 68.6102 25.1953C68.6102 23.7325 68.2344 22.4954 67.4812 21.4841C66.7493 20.4516 65.728 19.6448 64.4151 19.0641C63.1027 18.4615 61.5862 18.085 59.8649 17.9346L58.0579 17.7732C56.9822 17.687 56.2077 17.3967 55.7343 16.9018C55.261 16.4071 55.0243 15.826 55.0243 15.1593C55.0243 14.6428 55.1538 14.1696 55.4113 13.7394C55.6698 13.2875 56.0568 12.9326 56.5734 12.6743C57.1112 12.4163 57.7674 12.2871 58.5419 12.2871C59.3591 12.2871 60.0371 12.4376 60.575 12.739C60.6933 12.8026 60.8058 12.8707 60.9113 12.943L60.9369 12.9609C60.9763 12.9882 61.0153 13.0165 61.0531 13.0451C61.3799 13.2948 61.64 13.5907 61.8335 13.9329C62.1128 14.4063 62.2535 14.9333 62.2535 15.5142H67.4161C67.4161 13.9652 67.0611 12.6205 66.3516 11.4803C65.6416 10.3187 64.6197 9.42586 63.286 8.80177C61.9731 8.15635 60.3921 7.83359 58.5419 7.83359C56.7775 7.83359 55.2503 8.13503 53.9593 8.73732C52.6688 9.31829 51.6576 10.1573 50.9262 11.2543C50.2157 12.3516 49.8607 13.6533 49.8607 15.1593C49.8607 17.246 50.5606 18.924 51.9587 20.1936C53.3569 21.4628 55.229 22.1943 57.5739 22.3878L59.3489 22.5492C60.7898 22.6783 61.8335 22.9688 62.479 23.4204C63.124 23.8507 63.447 24.4424 63.447 25.1953C63.447 25.5414 63.3905 25.866 63.277 26.1692C63.1928 26.3942 63.0776 26.6075 62.931 26.8091C62.5862 27.2606 62.0808 27.6156 61.414 27.8741C60.7471 28.1321 59.9188 28.2611 58.9289 28.2611C57.8319 28.2611 56.939 28.1108 56.2509 27.8091C55.5622 27.4866 55.0462 27.0671 54.7013 26.5509C54.3788 26.0343 54.2178 25.4752 54.2178 24.8726H49.0867C49.0867 26.4002 49.463 27.7553 50.2157 28.9386C50.9689 30.1007 52.0771 31.0255 53.5403 31.7142Z" fill="url(#paint5_linear_706_2089)"/>
<path d="M88.198 32.3272C86.4123 32.3272 84.9709 32.1118 83.8739 31.6817C82.7763 31.2296 81.9698 30.4876 81.4533 29.4551C80.9586 28.4007 80.7113 26.9812 80.7113 25.1953V18.1926H78.0327V14.4169H80.7113V9.64096H85.5194V14.4169H90.683V18.1926H85.5194V25.3891C85.5194 26.2281 85.7347 26.8736 86.1649 27.325C86.6164 27.7552 87.2513 27.9706 88.069 27.9706H90.683V32.3272H88.198Z" fill="url(#paint6_linear_706_2089)"/>
<path fill-rule="evenodd" clip-rule="evenodd" d="M96.8995 31.9403C98.061 32.4563 99.3952 32.7149 100.901 32.7149C102.385 32.7149 103.698 32.4563 104.838 31.9403C105.978 31.4238 106.925 30.7031 107.678 29.7783C108.431 28.8529 108.937 27.7985 109.194 26.6154H104.451C104.236 27.153 103.827 27.605 103.225 27.9707C102.622 28.3364 101.847 28.5192 100.901 28.5192C100.315 28.5192 99.7908 28.4499 99.3291 28.3113C98.9779 28.2058 98.6628 28.0603 98.384 27.8742C97.7385 27.4435 97.2652 26.8412 96.964 26.0669C96.8803 25.8463 96.8089 25.6156 96.7486 25.3752C96.6873 25.1318 96.6378 24.8784 96.6005 24.6147H109.517V22.872C109.517 21.2584 109.173 19.7741 108.485 18.4188C107.796 17.0416 106.796 15.9337 105.484 15.0947C104.193 14.2342 102.6 13.8039 100.707 13.8039C99.2657 13.8039 97.9747 14.0622 96.8345 14.5784C95.7167 15.0731 94.7806 15.7508 94.0274 16.6114C93.2748 17.4719 92.6937 18.451 92.2844 19.5483C91.8974 20.6237 91.7039 21.7532 91.7039 22.9364V23.5819C91.7039 24.7222 91.8974 25.8409 92.2844 26.9382C92.6937 28.0139 93.2748 28.9926 94.0274 29.8748C94.8019 30.7351 95.7588 31.4238 96.8995 31.9403ZM96.6895 21.4237C96.7039 21.3553 96.7188 21.2881 96.7353 21.2218C96.7801 21.0394 96.8318 20.8646 96.8904 20.6975C96.9235 20.6024 96.9587 20.5096 96.9965 20.4195C97.319 19.6233 97.7924 19.021 98.416 18.6123C98.6495 18.4596 98.9022 18.3354 99.1735 18.2397C99.6298 18.0794 100.142 17.9991 100.707 17.9991C101.59 17.9991 102.321 18.2036 102.902 18.6123C103.504 18.9995 103.956 19.5695 104.257 20.3226C104.282 20.3833 104.305 20.4452 104.327 20.5078C104.363 20.6076 104.396 20.7099 104.427 20.8149C104.472 20.9711 104.512 21.1327 104.547 21.2997C104.573 21.4229 104.595 21.5489 104.614 21.6781H96.6399C96.6548 21.5918 96.6714 21.5071 96.6895 21.4237Z" fill="url(#paint7_linear_706_2089)"/>
<path d="M111.648 32.1015V14.4173H115.747V18.8713C115.802 18.6065 115.866 18.3524 115.937 18.1087C115.998 17.9035 116.063 17.7054 116.134 17.5152C116.586 16.3104 117.264 15.407 118.167 14.8044C119.071 14.1806 120.178 13.8687 121.491 13.8687H121.717C123.051 13.8687 124.159 14.1806 125.041 14.8044C125.944 15.407 126.622 16.3104 127.074 17.5152L127.109 17.6062L127.14 17.6893C127.16 17.6306 127.181 17.5726 127.203 17.5152C127.676 16.3104 128.365 15.407 129.268 14.8044C130.172 14.1806 131.28 13.8687 132.592 13.8687H132.818C134.152 13.8687 135.27 14.1806 136.174 14.8044C137.099 15.407 137.799 16.3104 138.272 17.5152C138.745 18.7201 138.982 20.2261 138.982 22.0332V32.1015H133.818V21.7427C133.818 20.7746 133.56 19.9894 133.044 19.3871C132.549 18.7845 131.839 18.4834 130.914 18.4834C129.989 18.4834 129.258 18.7955 128.72 19.4193C128.182 20.0216 127.913 20.8284 127.913 21.8397V32.1015H122.717V21.7427C122.717 20.7746 122.459 19.9894 121.943 19.3871C121.448 18.7845 120.749 18.4834 119.846 18.4834C118.898 18.4834 118.156 18.7955 117.619 19.4193C117.081 20.0216 116.811 20.8284 116.811 21.8397V32.1015H111.648Z" fill="url(#paint8_linear_706_2089)"/>
<path fill-rule="evenodd" clip-rule="evenodd" d="M152.774 28.6941V32.1013H156.872V21.2585C156.872 19.6233 156.55 18.2896 155.904 17.2568C155.259 16.2026 154.313 15.4175 153.065 14.9011C151.839 14.3849 150.322 14.1266 148.515 14.1266C148.123 14.1266 147.714 14.1308 147.288 14.1393C147.036 14.1445 146.777 14.151 146.514 14.1588C145.804 14.1804 145.115 14.2126 144.448 14.2557L143.939 14.2901C143.677 14.3082 143.431 14.3261 143.2 14.3443C143.026 14.3579 142.862 14.3713 142.706 14.3849V18.7415C143.373 18.6983 144.115 18.6552 144.932 18.6123C145.161 18.6004 145.388 18.5892 145.613 18.5788C145.938 18.5637 146.258 18.5508 146.575 18.5393C146.826 18.5303 147.074 18.5222 147.321 18.5154C148.095 18.4938 148.719 18.4832 149.192 18.4832C150.139 18.4832 150.827 18.709 151.258 19.1608C151.688 19.6127 151.903 20.2903 151.903 21.194V21.2585H148.708C147.138 21.2585 145.75 21.4629 144.545 21.8717C143.34 22.2588 142.404 22.872 141.738 23.711C141.071 24.5287 140.737 25.5829 140.737 26.8737C140.737 28.0571 141.006 29.0789 141.544 29.9393C142.082 30.7783 142.824 31.4238 143.77 31.8753C144.739 32.3273 145.858 32.5533 147.127 32.5533C148.353 32.5533 149.386 32.3273 150.225 31.8753C151.085 31.4238 151.752 30.7783 152.226 29.9393C152.309 29.798 152.387 29.6514 152.459 29.499C152.562 29.2836 152.653 29.0565 152.733 28.8193L152.774 28.6941ZM151.903 25.5506V24.1306H148.676C147.772 24.1306 147.073 24.3564 146.579 24.8083C146.105 25.2386 145.868 25.8302 145.868 26.5832C145.868 26.9377 145.927 27.2596 146.045 27.5501C146.164 27.8412 146.341 28.0997 146.579 28.3257C147.073 28.7564 147.772 28.9713 148.676 28.9713C148.848 28.9713 149.014 28.9627 149.175 28.9457C149.306 28.9323 149.433 28.9126 149.556 28.8876C149.793 28.8391 150.016 28.7703 150.225 28.6807C150.699 28.4659 151.085 28.1109 151.386 27.6157C151.688 27.121 151.86 26.4325 151.903 25.5506Z" fill="url(#paint9_linear_706_2089)"/>
<path d="M159.962 32.1011V14.4168H164.061V20.254C164.257 18.5877 164.752 17.2441 165.546 16.224C166.621 14.8687 168.17 14.191 170.193 14.191H170.87V18.6443H169.579C168.16 18.6443 167.062 19.0314 166.288 19.806C165.513 20.559 165.126 21.6563 165.126 23.0975V32.1011H159.962Z" fill="url(#paint10_linear_706_2089)"/>
<path d="M177.418 23.8402H179.128L184.711 32.1014H190.519L183.441 21.9556L189.261 14.4171H183.84L177.418 22.8258V8.54388H172.254V32.1014H177.418V23.8402Z" fill="url(#paint11_linear_706_2089)"/>
<defs>
<linearGradient id="paint0_linear_706_2089" x1="12.1039" y1="20.6734" x2="12.1039" y2="40" gradientUnits="userSpaceOnUse">
<stop stop-color="#6C7085"/>
<stop offset="1" stop-color="#252731"/>
</linearGradient>
<linearGradient id="paint1_linear_706_2089" x1="31.1735" y1="6.73236" x2="31.1735" y2="33.346" gradientUnits="userSpaceOnUse">
<stop stop-color="#6C7085"/>
<stop offset="1" stop-color="#252731"/>
</linearGradient>
<linearGradient id="paint2_linear_706_2089" x1="12.1039" y1="0" x2="12.1039" y2="19.3266" gradientUnits="userSpaceOnUse">
<stop stop-color="#6C7085"/>
<stop offset="1" stop-color="#252731"/>
</linearGradient>
<linearGradient id="paint3_linear_706_2089" x1="72.9181" y1="14.4172" x2="72.9181" y2="32.1014" gradientUnits="userSpaceOnUse">
<stop stop-color="#6C7085"/>
<stop offset="1" stop-color="#252731"/>
</linearGradient>
<linearGradient id="paint4_linear_706_2089" x1="73.5153" y1="7.28522" x2="73.5153" y2="12.6744" gradientUnits="userSpaceOnUse">
<stop stop-color="#6C7085"/>
<stop offset="1" stop-color="#252731"/>
</linearGradient>
<linearGradient id="paint5_linear_706_2089" x1="58.8484" y1="7.83359" x2="58.8484" y2="32.7148" gradientUnits="userSpaceOnUse">
<stop stop-color="#6C7085"/>
<stop offset="1" stop-color="#252731"/>
</linearGradient>
<linearGradient id="paint6_linear_706_2089" x1="84.3579" y1="9.64096" x2="84.3579" y2="32.3272" gradientUnits="userSpaceOnUse">
<stop stop-color="#6C7085"/>
<stop offset="1" stop-color="#252731"/>
</linearGradient>
<linearGradient id="paint7_linear_706_2089" x1="100.611" y1="13.8039" x2="100.611" y2="32.7148" gradientUnits="userSpaceOnUse">
<stop stop-color="#6C7085"/>
<stop offset="1" stop-color="#252731"/>
</linearGradient>
<linearGradient id="paint8_linear_706_2089" x1="125.315" y1="13.8687" x2="125.315" y2="32.1015" gradientUnits="userSpaceOnUse">
<stop stop-color="#6C7085"/>
<stop offset="1" stop-color="#252731"/>
</linearGradient>
<linearGradient id="paint9_linear_706_2089" x1="148.805" y1="14.1266" x2="148.805" y2="32.5533" gradientUnits="userSpaceOnUse">
<stop stop-color="#6C7085"/>
<stop offset="1" stop-color="#252731"/>
</linearGradient>
<linearGradient id="paint10_linear_706_2089" x1="165.416" y1="14.191" x2="165.416" y2="32.1011" gradientUnits="userSpaceOnUse">
<stop stop-color="#6C7085"/>
<stop offset="1" stop-color="#252731"/>
</linearGradient>
<linearGradient id="paint11_linear_706_2089" x1="181.387" y1="8.54388" x2="181.387" y2="32.1014" gradientUnits="userSpaceOnUse">
<stop stop-color="#6C7085"/>
<stop offset="1" stop-color="#252731"/>
</linearGradient>
</defs>
</svg>
